<svg fill="none" xmlns="http://www.w3.org/2000/svg" viewBox="0 0 320 320">
    <path
            fill-rule="evenodd"
            clip-rule="evenodd"
            d="M120 0C53.7258 0 0 53.7258 0 120v80c0 66.274 53.7258 120 120 120h80c66.274 0 120-53.726 120-120v-80C320 53.7258 266.274 0 200 0h-80Zm138.007 166.868C260.202 156.042 251.046 147 240 147H80c-11.0457 0-20.2016 9.042-18.0069 19.868 3.8761 19.119 13.2963 36.843 27.2962 50.843C108.043 236.464 133.478 247 160 247c26.522 0 51.957-10.536 70.711-29.289 14-14 23.42-31.724 27.296-50.843Zm-153.459-46.32c4.686 4.686 12.658 4.645 14.651-1.676.272-.864.498-1.745.676-2.639.965-4.85.47-9.877-1.423-14.445-1.892-4.5679-5.096-8.4724-9.207-11.2194-4.112-2.747-8.945-4.2133-13.8897-4.2133-4.9445 0-9.778 1.4663-13.8892 4.2133-4.1112 2.747-7.3155 6.6515-9.2077 11.2194-1.8922 4.568-2.3873 9.595-1.4227 14.445.1779.894.404 1.775.6764 2.639 1.9926 6.321 9.9646 6.362 14.6509 1.676l.7071-.707c4.6863-4.687 12.2842-4.687 16.9709 0l.707.707Zm143.796-2.154c-1.943 6.624-10.268 6.682-15.15 1.8-4.881-4.881-12.796-4.881-17.677 0-4.882 4.882-13.207 4.824-15.15-1.8-.209-.71-.386-1.431-.531-2.161-.965-4.85-.47-9.877 1.422-14.445 1.893-4.5679 5.097-8.4724 9.208-11.2194s8.945-4.2133 13.889-4.2133c4.945 0 9.778 1.4663 13.89 4.2133 4.111 2.747 7.315 6.6515 9.207 11.2194 1.893 4.568 2.388 9.595 1.423 14.445-.145.73-.323 1.451-.531 2.161Z"
            fill="#D9D9D9"
    />
</svg>